<svg width="500" height="500" viewBox="0 0 500 500" fill="none" xmlns="http://www.w3.org/2000/svg">
<path d="M209.665 50.7041C231.055 30.551 264.385 30.3614 286.003 50.2695L378.624 135.564C390.138 146.168 396.688 161.106 396.688 176.758V430C396.688 460.928 371.616 486 340.688 486H158C127.072 486 102 460.928 102 430V176.324C102 160.894 108.367 146.147 119.598 135.565L209.665 50.7041Z" fill="#F9F8F4" stroke="#1F684B" stroke-width="16"/>
<path d="M125.957 180.145C125.957 171.748 129.257 163.688 135.145 157.702L225.382 65.9811C237.819 53.3392 258.166 53.223 270.747 65.7219L363.285 157.657C369.332 163.664 372.732 171.835 372.732 180.359V430.931C372.732 448.604 358.405 462.931 340.732 462.931H157.957C140.283 462.931 125.957 448.604 125.957 430.931V180.145Z" fill="#DDBD97" fill-opacity="0.69"/>
<path d="M313.272 210.023C316.072 210.023 318.172 211.123 319.572 213.323C320.972 215.523 321.672 218.023 321.672 220.823C321.672 224.623 320.072 228.423 316.872 232.223L305.172 247.223C282.372 277.023 264.072 301.723 250.272 321.323C236.472 340.923 223.172 362.423 210.372 385.823C204.172 397.823 197.072 403.823 189.072 403.823C185.472 403.823 182.272 402.923 179.472 401.123C176.672 399.123 175.272 395.823 175.272 391.223C175.272 388.223 176.172 385.723 177.972 383.723C184.572 374.323 196.372 356.823 213.372 331.223C229.372 307.423 242.572 288.023 252.972 273.023C263.572 257.823 273.872 244.023 283.872 231.623C284.672 230.623 286.572 228.123 289.572 224.123C292.772 220.123 296.372 216.823 300.372 214.223C304.372 211.423 308.672 210.023 313.272 210.023ZM194.472 213.323C200.472 213.323 206.572 214.723 212.772 217.523C219.172 220.323 224.472 224.323 228.672 229.523C232.872 234.523 234.972 240.123 234.972 246.323C234.972 255.123 233.072 263.123 229.272 270.323C225.472 277.523 220.272 283.223 213.672 287.423C207.072 291.423 199.772 293.423 191.772 293.423C179.172 293.423 169.072 289.723 161.472 282.323C153.872 274.723 150.072 264.823 150.072 252.623C150.072 239.823 153.972 230.123 161.772 223.523C169.772 216.723 180.672 213.323 194.472 213.323ZM187.872 270.623C202.272 270.623 209.472 262.923 209.472 247.523C209.472 243.723 208.072 240.923 205.272 239.123C202.672 237.323 198.472 236.423 192.672 236.423C186.272 236.423 181.372 238.123 177.972 241.523C174.772 244.723 173.172 248.423 173.172 252.623C173.172 257.223 174.572 261.423 177.372 265.223C180.172 268.823 183.672 270.623 187.872 270.623ZM340.272 360.623C340.272 368.423 338.072 375.423 333.672 381.623C329.472 387.623 323.772 392.323 316.572 395.723C309.572 399.123 302.172 400.823 294.372 400.823C287.772 400.823 281.572 399.223 275.772 396.023C269.972 392.623 265.272 388.023 261.672 382.223C258.272 376.423 256.572 369.923 256.572 362.723C256.572 355.323 258.372 348.323 261.972 341.723C265.772 335.123 271.172 329.823 278.172 325.823C285.172 321.623 293.372 319.523 302.772 319.523C314.972 319.523 324.272 323.123 330.672 330.323C337.072 337.323 340.272 347.423 340.272 360.623ZM300.372 342.323C294.572 342.323 289.872 343.823 286.272 346.823C282.872 349.823 281.172 354.523 281.172 360.923C281.172 366.523 282.572 370.823 285.372 373.823C288.172 376.823 291.172 378.323 294.372 378.323C309.772 378.323 317.472 371.423 317.472 357.623C317.472 353.023 315.972 349.323 312.972 346.523C309.972 343.723 305.772 342.323 300.372 342.323Z" fill="#1F684B"/>
<circle cx="249.344" cy="121.174" r="31.3043" stroke="#1F684B" stroke-width="20"/>
<path d="M270.648 113.629C269.21 109.468 267.458 107.631 263.547 104.752C266.453 83.8762 276.784 67.0777 292.84 53.2665C317.644 37.1138 336.337 34.6252 366.074 34.6252C373.619 34.6252 376.726 36.8444 378.946 42.6143C379.833 45.7212 378.894 49.4379 377.17 53.2665L380.721 52.3788L397.587 25.7484L359.417 16.4277L285.739 31.9622L252.895 73.6832L248.9 112.297L270.648 113.629Z" fill="#FAA85E"/>
<path d="M253.342 107.416C253.785 111.853 264.498 110.667 270.208 107.859C275.004 115.457 276.403 122.013 270.207 126.5C249.981 131.333 238.251 125.611 236.475 108.302C235.588 75.9012 254.226 46.1639 269.316 32.8496C307.93 4.44302 356.756 0.00528955 390.488 10.6583C404.691 15.9838 413.568 34.6249 400.697 50.6031C382.943 71.0198 362.423 74.444 334.121 86.1104L320.361 73.239C353.65 61.6992 392.264 44.3894 388.713 30.6312C381.611 18.6466 313.704 20.8658 285.298 42.171C269.764 55.0415 252.454 84.335 253.342 107.416Z" fill="#1F684B" stroke="#1F684B" stroke-linecap="round"/>
<path d="M290.5 118.5C294.695 103.523 292.774 102.107 301.717 95.8751L276.419 71.4639C271.766 77.9717 270.435 79.5661 267.986 86.9983C280.413 95.4313 289.168 101.634 290.5 118.5Z" fill="#ED9A4E"/>
</svg>
